<?xml version="1.0" encoding="utf-8"?>
<!-- Generator: Adobe Illustrator 22.1.0, SVG Export Plug-In . SVG Version: 6.00 Build 0)  -->
<svg version="1.1" id="레이어_1" xmlns="http://www.w3.org/2000/svg" xmlns:xlink="http://www.w3.org/1999/xlink" x="0px"
	 y="0px" viewBox="0 0 681.8 170.1" style="enable-background:new 0 0 681.8 170.1;" xml:space="preserve">
<style type="text/css">
	.st0{fill:#393A3A;}
</style>
<g>
	<path class="st0" d="M89.2,130c-1.1-3.3-1.9-7-2.2-11.3c-4.3,4.5-9.9,8-17,10.7c-7,2.7-15.2,4-24.5,4c-15.8,0-27.3-3.2-34.6-9.7
		c-7.3-6.4-11-14.8-11-25.1c0-9.1,1.6-16.3,4.7-21.7c3.1-5.4,7.5-9.7,13.1-12.7c5.6-3.1,12.2-5.4,19.9-6.8c7.7-1.5,16.1-2.8,25.2-4
		c9.1-1.2,15.2-2.8,18.3-4.8c3.1-2,4.7-5.2,4.7-9.7c0-4.1-2.1-7.3-6.3-9.7c-4.2-2.3-9.8-3.5-16.8-3.5c-8.3,0-14.3,1.7-17.9,5.1
		c-3.6,3.4-5.9,8-6.8,13.6H4.4C4.6,38,5.8,32,7.9,26.5C10,21,13.5,16.3,18.2,12.4c4.7-3.9,10.9-7,18.5-9.1C44.3,1.1,53.6,0,64.5,0
		c10.7,0,19.9,1.1,27.4,3.3c7.5,2.2,13.5,5.5,18.1,9.7c4.5,4.2,7.8,9.4,9.9,15.7c2,6.3,3.1,13.3,3.1,21.2v80H89.2z M86.7,67.9
		c-1.9,1.7-4.5,3.1-8.1,4.1c-3.5,1-8.6,2.1-15.3,3.3C53,77.3,45.9,79.7,42,82.6c-3.9,2.9-5.8,7.1-5.8,12.6c0,9.4,5.8,14.2,17.5,14.2
		c4.6,0,8.9-0.7,12.9-2.2c4-1.5,7.4-3.4,10.3-5.9c2.9-2.5,5.2-5.4,7-8.7c1.8-3.3,2.6-6.9,2.6-10.7L86.7,67.9z"/>
	<path class="st0" d="M267.8,120.9c-0.9,7.4-3.2,14.1-6.8,20.1c-3.6,6-8.2,11.2-13.8,15.4c-5.6,4.3-11.9,7.6-19,10
		c-7.1,2.4-14.9,3.6-23.2,3.6c-9.3,0-17.7-1.4-25.4-4.2c-7.7-2.8-14.3-7.1-19.9-12.9c-5.6-5.7-9.9-12.9-12.9-21.4
		c-3.1-8.5-4.6-18.4-4.6-29.7s1.5-21.1,4.6-29.3c3.1-8.2,7.4-15,12.9-20.2c5.6-5.2,12.3-9.1,20.2-11.7c7.9-2.6,16.6-3.9,26.3-3.9
		c8.9,0,17,1.1,24.3,3.3c7.3,2.2,13.7,5.5,19.2,9.8c5.5,4.3,9.8,9.4,12.9,15.4c3.1,6,5,12.7,5.6,20.1h-36.4
		c-0.9-6.5-3.8-11.6-8.5-15.3c-4.7-3.7-10.5-5.5-17.4-5.5c-3.9,0-7.5,0.6-10.8,1.8c-3.3,1.2-6.3,3.2-8.8,6c-2.5,2.8-4.5,6.6-6,11.3
		c-1.5,4.7-2.2,10.5-2.2,17.4c0,13.9,2.7,24.2,8.1,30.9c5.4,6.7,11.6,10,18.6,10c7,0,13.1-1.8,18.1-5.4c5-3.6,7.9-8.8,8.6-15.7
		H267.8z"/>
	<path class="st0" d="M369.9,130c-1.1-3.3-1.9-7-2.2-11.3c-4.3,4.5-9.9,8-17,10.7c-7,2.7-15.2,4-24.5,4c-15.8,0-27.3-3.2-34.6-9.7
		c-7.3-6.4-11-14.8-11-25.1c0-9.1,1.6-16.3,4.7-21.7c3.1-5.4,7.5-9.7,13.1-12.7c5.6-3.1,12.2-5.4,19.9-6.8c7.7-1.5,16.1-2.8,25.2-4
		c9.1-1.2,15.2-2.8,18.3-4.8c3.1-2,4.7-5.2,4.7-9.7c0-4.1-2.1-7.3-6.3-9.7c-4.2-2.3-9.8-3.5-16.8-3.5c-8.3,0-14.3,1.7-17.9,5.1
		c-3.6,3.4-5.9,8-6.8,13.6h-33.6c0.2-6.5,1.3-12.5,3.5-18c2.1-5.5,5.6-10.2,10.3-14.2c4.7-3.9,10.9-7,18.5-9.1
		C325,1.1,334.3,0,345.2,0c10.7,0,19.9,1.1,27.4,3.3c7.5,2.2,13.5,5.5,18.1,9.7c4.5,4.2,7.8,9.4,9.9,15.7c2,6.3,3.1,13.3,3.1,21.2
		v80H369.9z M367.4,67.9c-1.9,1.7-4.5,3.1-8.1,4.1c-3.5,1-8.6,2.1-15.3,3.3c-10.4,1.9-17.5,4.3-21.4,7.2c-3.9,2.9-5.8,7.1-5.8,12.6
		c0,9.4,5.8,14.2,17.5,14.2c4.6,0,8.9-0.7,12.9-2.2c4-1.5,7.4-3.4,10.3-5.9c2.9-2.5,5.2-5.4,7-8.7c1.8-3.3,2.6-6.9,2.6-10.7
		L367.4,67.9z"/>
	<path class="st0" d="M507.6,78.5c-0.9-5.8-3.3-10.1-7.1-12.7c-3.8-2.7-9.6-4-17.4-4c-7.4,0-13,0.8-16.8,2.4
		c-3.8,1.6-5.7,4.4-5.7,8.4c0,3.4,1.9,6.2,5.7,8.2c3.8,2.1,9.3,4,16.5,5.9c11.9,3.1,21.9,5.7,30,7.8c8.2,2.1,14.7,4.7,19.6,7.6
		c4.9,2.9,8.4,6.6,10.6,10.9c2.1,4.4,3.2,10.3,3.2,17.6c0,11.3-5.1,20.7-15.3,28.2c-10.2,7.5-25.3,11.2-45.3,11.2
		c-9.8,0-18.7-1-26.7-3.1c-8-2.1-14.8-5-20.4-8.9c-5.7-3.9-10-8.5-13.1-13.9c-3.1-5.4-4.7-11.5-4.9-18.1h37.2c0,6,2.5,10.6,7.6,13.9
		c5.1,3.3,11.7,4.9,19.9,4.9c6.9,0,12.7-1,17.7-3c4.9-2,7.4-5,7.4-9.1c0-4.6-1.8-8-5.4-10c-3.6-2.1-9.1-3.9-16.5-5.4
		c-13.3-2.7-24.1-5.6-32.2-8.6c-8.2-3-14.5-6.3-19-9.9c-4.5-3.6-7.6-7.5-9.2-11.8c-1.6-4.3-2.4-9.1-2.4-14.4c0-4.8,1.1-9.3,3.2-13.6
		c2.1-4.3,5.5-8.1,10.1-11.3c4.6-3.3,10.7-5.9,18.1-7.8c7.4-2,16.5-3,27.2-3c19.6,0,34,3.7,43.1,11.1c9.1,7.4,14.1,17.6,15,30.6
		H507.6z"/>
	<path class="st0" d="M648.1,130c-1.1-3.3-1.9-7-2.2-11.3c-4.3,4.5-9.9,8-17,10.7c-7,2.7-15.2,4-24.5,4c-15.8,0-27.3-3.2-34.6-9.7
		c-7.3-6.4-11-14.8-11-25.1c0-9.1,1.6-16.3,4.7-21.7c3.1-5.4,7.5-9.7,13.1-12.7c5.6-3.1,12.2-5.4,19.9-6.8c7.7-1.5,16.1-2.8,25.2-4
		c9.1-1.2,15.2-2.8,18.3-4.8c3.1-2,4.7-5.2,4.7-9.7c0-4.1-2.1-7.3-6.3-9.7c-4.2-2.3-9.8-3.5-16.8-3.5c-8.3,0-14.3,1.7-17.9,5.1
		c-3.6,3.4-5.9,8-6.8,13.6h-33.6c0.2-6.5,1.3-12.5,3.5-18c2.1-5.5,5.6-10.2,10.3-14.2c4.7-3.9,10.9-7,18.5-9.1
		c7.6-2.1,16.9-3.2,27.8-3.2c10.7,0,19.9,1.1,27.4,3.3c7.5,2.2,13.5,5.5,18.1,9.7c4.5,4.2,7.8,9.4,9.9,15.7c2,6.3,3.1,13.3,3.1,21.2
		v80H648.1z M645.6,67.9c-1.9,1.7-4.5,3.1-8.1,4.1c-3.5,1-8.6,2.1-15.3,3.3c-10.4,1.9-17.5,4.3-21.4,7.2c-3.9,2.9-5.8,7.1-5.8,12.6
		c0,9.4,5.8,14.2,17.5,14.2c4.6,0,8.9-0.7,12.9-2.2c4-1.5,7.4-3.4,10.3-5.9c2.9-2.5,5.2-5.4,7-8.7c1.8-3.3,2.6-6.9,2.6-10.7
		L645.6,67.9z"/>
</g>
</svg>
