<?xml version="1.0" encoding="utf-8"?>
<!-- Generator: Adobe Illustrator 21.1.0, SVG Export Plug-In . SVG Version: 6.00 Build 0)  -->
<svg version="1.1" id="레이어_1" xmlns="http://www.w3.org/2000/svg" xmlns:xlink="http://www.w3.org/1999/xlink" x="0px"
	 y="0px" viewBox="0 0 690.4 172.2" style="enable-background:new 0 0 690.4 172.2;" xml:space="preserve">
<style type="text/css">
	.st0{fill:#2C2D2D;}
</style>
<g>
	<path class="st0" d="M90.4,131.6c-1.1-3.3-1.9-7.1-2.3-11.5c-4.3,4.5-10,8.1-17.2,10.8c-7.1,2.7-15.4,4-24.8,4
		c-16,0-27.6-3.3-35-9.8C3.7,118.7,0,110.2,0,99.8c0-9.2,1.6-16.6,4.8-22C8,72.3,12.4,68,18,64.9s12.3-5.4,20.1-6.9
		c7.8-1.5,16.3-2.8,25.5-4c9.2-1.2,15.4-2.8,18.6-4.8c3.2-2,4.8-5.3,4.8-9.8c0-4.2-2.1-7.4-6.3-9.8c-4.2-2.3-9.9-3.5-17-3.5
		c-8.4,0-14.5,1.7-18.2,5.2c-3.7,3.5-6,8.1-6.9,13.8H4.5C4.7,38.5,5.9,32.4,8,26.8c2.2-5.6,5.6-10.3,10.4-14.3
		c4.8-4,11-7.1,18.7-9.3C44.9,1.1,54.2,0,65.3,0C76.2,0,85.4,1.1,93,3.4c7.6,2.3,13.7,5.5,18.3,9.8c4.6,4.3,7.9,9.6,10,15.9
		c2.1,6.3,3.1,13.5,3.1,21.5v81.1H90.4z M87.8,68.8c-1.9,1.7-4.6,3.1-8.2,4.2c-3.6,1-8.7,2.2-15.5,3.4c-10.5,1.9-17.7,4.3-21.7,7.3
		c-3.9,3-5.9,7.2-5.9,12.8c0,9.6,5.9,14.3,17.7,14.3c4.7,0,9.1-0.7,13.1-2.2c4-1.5,7.5-3.5,10.4-6c2.9-2.5,5.3-5.5,7-8.9
		c1.8-3.4,2.7-7,2.7-10.8L87.8,68.8z"/>
	<path class="st0" d="M271.2,122.5c-0.9,7.5-3.2,14.2-6.9,20.3c-3.7,6.1-8.3,11.3-13.9,15.6c-5.6,4.3-12.1,7.7-19.3,10.2
		c-7.2,2.4-15.1,3.7-23.5,3.7c-9.4,0-18-1.4-25.8-4.3c-7.8-2.9-14.5-7.2-20.1-13c-5.6-5.8-10-13-13.1-21.6
		c-3.1-8.6-4.6-18.6-4.6-30.1s1.5-21.4,4.6-29.7c3.1-8.3,7.5-15.2,13.1-20.5c5.6-5.3,12.4-9.3,20.4-11.9c8-2.6,16.8-3.9,26.6-3.9
		c9,0,17.2,1.1,24.6,3.4c7.4,2.3,13.9,5.6,19.4,9.9c5.5,4.3,9.9,9.6,13.1,15.6c3.2,6.1,5.1,12.9,5.6,20.3h-36.9
		c-0.9-6.6-3.8-11.8-8.6-15.5c-4.8-3.7-10.7-5.6-17.6-5.6c-3.9,0-7.6,0.6-11,1.8c-3.4,1.2-6.3,3.3-8.9,6.1
		c-2.5,2.9-4.6,6.7-6.1,11.5c-1.5,4.8-2.3,10.6-2.3,17.6c0,14.1,2.7,24.5,8.2,31.3c5.4,6.8,11.7,10.2,18.9,10.2
		c7.1,0,13.2-1.8,18.3-5.5c5.1-3.6,8-8.9,8.7-15.9H271.2z"/>
	<path class="st0" d="M374.6,131.6c-1.1-3.3-1.9-7.1-2.3-11.5c-4.3,4.5-10,8.1-17.2,10.8c-7.1,2.7-15.4,4-24.8,4
		c-16,0-27.6-3.3-35-9.8c-7.4-6.5-11.1-15-11.1-25.4c0-9.2,1.6-16.6,4.8-22c3.2-5.5,7.6-9.8,13.2-12.9s12.3-5.4,20.1-6.9
		c7.8-1.5,16.3-2.8,25.5-4c9.2-1.2,15.4-2.8,18.6-4.8c3.2-2,4.8-5.3,4.8-9.8c0-4.2-2.1-7.4-6.3-9.8c-4.2-2.3-9.9-3.5-17-3.5
		c-8.4,0-14.5,1.7-18.2,5.2c-3.7,3.5-6,8.1-6.9,13.8h-34.1c0.2-6.6,1.4-12.7,3.5-18.2c2.2-5.6,5.6-10.3,10.4-14.3
		c4.8-4,11-7.1,18.7-9.3c7.7-2.2,17.1-3.3,28.2-3.3c10.9,0,20.1,1.1,27.7,3.4c7.6,2.3,13.7,5.5,18.3,9.8c4.6,4.3,7.9,9.6,10,15.9
		c2.1,6.3,3.1,13.5,3.1,21.5v81.1H374.6z M372.1,68.8c-1.9,1.7-4.6,3.1-8.2,4.2c-3.6,1-8.7,2.2-15.5,3.4
		c-10.5,1.9-17.7,4.3-21.7,7.3c-3.9,3-5.9,7.2-5.9,12.8c0,9.6,5.9,14.3,17.7,14.3c4.7,0,9.1-0.7,13.1-2.2c4-1.5,7.5-3.5,10.4-6
		c2.9-2.5,5.3-5.5,7-8.9c1.8-3.4,2.7-7,2.7-10.8L372.1,68.8z"/>
	<path class="st0" d="M514.1,79.5c-0.9-5.9-3.3-10.2-7.2-12.9s-9.7-4-17.6-4c-7.5,0-13.2,0.8-17,2.5c-3.8,1.7-5.8,4.5-5.8,8.5
		c0,3.5,1.9,6.3,5.8,8.3c3.8,2.1,9.4,4.1,16.8,6c12,3.1,22.1,5.8,30.4,7.9c8.3,2.2,14.9,4.7,19.8,7.7c5,3,8.5,6.6,10.7,11.1
		c2.2,4.4,3.2,10.4,3.2,17.9c0,11.5-5.2,21-15.5,28.5c-10.3,7.6-25.6,11.3-45.9,11.3c-9.9,0-19-1-27-3.1c-8.1-2.1-15-5.1-20.7-9
		c-5.7-3.9-10.1-8.6-13.2-14.1c-3.1-5.5-4.7-11.6-4.9-18.4h37.7c0,6.1,2.6,10.8,7.7,14.1c5.2,3.3,11.9,5,20.1,5c6.9,0,12.9-1,17.9-3
		c5-2,7.5-5.1,7.5-9.3c0-4.7-1.8-8.1-5.5-10.2c-3.7-2.1-9.2-3.9-16.7-5.5c-13.5-2.8-24.4-5.7-32.7-8.7c-8.3-3-14.7-6.4-19.3-10
		c-4.6-3.6-7.7-7.6-9.3-12c-1.6-4.3-2.4-9.2-2.4-14.6c0-4.9,1.1-9.5,3.2-13.8c2.2-4.3,5.6-8.2,10.3-11.5c4.7-3.3,10.8-5.9,18.3-7.9
		c7.5-2,16.7-3,27.6-3c19.9,0,34.4,3.7,43.6,11.2c9.2,7.5,14.3,17.8,15.2,31H514.1z"/>
	<path class="st0" d="M656.4,131.6c-1.1-3.3-1.9-7.1-2.3-11.5c-4.3,4.5-10,8.1-17.2,10.8c-7.1,2.7-15.4,4-24.8,4
		c-16,0-27.6-3.3-35-9.8c-7.4-6.5-11.1-15-11.1-25.4c0-9.2,1.6-16.6,4.8-22c3.2-5.5,7.6-9.8,13.2-12.9c5.6-3.1,12.3-5.4,20.1-6.9
		c7.8-1.5,16.3-2.8,25.5-4c9.2-1.2,15.4-2.8,18.6-4.8c3.2-2,4.8-5.3,4.8-9.8c0-4.2-2.1-7.4-6.3-9.8c-4.2-2.3-9.9-3.5-17-3.5
		c-8.4,0-14.5,1.7-18.2,5.2c-3.7,3.5-6,8.1-6.9,13.8h-34.1c0.2-6.6,1.4-12.7,3.5-18.2c2.2-5.6,5.6-10.3,10.4-14.3
		c4.8-4,11-7.1,18.7-9.3c7.7-2.2,17.1-3.3,28.2-3.3c10.9,0,20.1,1.1,27.7,3.4c7.6,2.3,13.7,5.5,18.3,9.8c4.6,4.3,7.9,9.6,10,15.9
		c2.1,6.3,3.1,13.5,3.1,21.5v81.1H656.4z M653.8,68.8c-1.9,1.7-4.6,3.1-8.2,4.2c-3.6,1-8.7,2.2-15.5,3.4
		c-10.5,1.9-17.7,4.3-21.7,7.3c-3.9,3-5.9,7.2-5.9,12.8c0,9.6,5.9,14.3,17.7,14.3c4.7,0,9.1-0.7,13.1-2.2c4-1.5,7.5-3.5,10.4-6
		c2.9-2.5,5.3-5.5,7-8.9c1.8-3.4,2.7-7,2.7-10.8L653.8,68.8z"/>
</g>
</svg>
